<svg fill="none" viewBox="0 0 80 26" xmlns="http://www.w3.org/2000/svg"><g fill="#0060AF" clip-path="url(#clip0_3802_10653)"><path d="M11.788 19.03c0-.999.01-3.67-.014-3.999.022-3.974-2.868-6.778-4.694-6.56-1.263.11-2.322.625-2.89 2.107-.527 1.381-.056 3.218 1.695 3.65 1.874.462 2.967.847 3.759 1.39.97.666 1.762 1.937 1.783 3.414"/><path d="M12.535 25.072c-3.302 0-6.697-.813-10.086-2.422l-.084-.041-.04-.085C.806 19.314 0 15.801 0 12.365c0-3.43.771-6.793 2.294-10l.042-.085.084-.042C5.556.752 8.93 0 12.45 0c3.279 0 6.78.838 10.126 2.427l.086.038.04.087c1.55 3.27 2.367 6.781 2.367 10.16 0 3.366-.785 6.731-2.337 10l-.041.085-.086.04c-3.088 1.462-6.57 2.235-10.07 2.235M2.762 22.21c3.293 1.549 6.578 2.33 9.773 2.33 3.39 0 6.76-.74 9.76-2.144 1.49-3.167 2.245-6.426 2.245-9.684 0-3.27-.789-6.673-2.28-9.847C19.014 1.34 15.624.53 12.45.53c-3.409 0-6.675.723-9.716 2.15C1.274 5.786.53 9.043.53 12.364c0 3.327.772 6.73 2.231 9.845"/><path d="M11.005 19.032c.006-1.28-.709-2.413-1.643-3.022-.83-.538-1.942-.891-3.737-1.347-.555-.142-1.135-.457-1.315-.859-.475.48-.562 1.556-.478 2.185.097.729.948 1.929 2.23 1.976.782.031 1.771-.169 2.246-.27.818-.176 2.113.336 2.32 1.336M12.45 2.277c-2.173 0-4.05 1.433-4.043 3.912.007 2.085 1.684 3.201 2.282 3.999.904 1.201 1.393 2.623 1.444 4.799.04 1.731.038 3.441.047 4.047h.48c-.01-.634-.031-2.449-.006-4.1.032-2.177.54-3.545 1.444-4.746.603-.798 2.279-1.914 2.283-3.999.008-2.479-1.868-3.912-4.039-3.912"/><path d="M13.001 19.03c0-.999-.011-3.67.013-3.999-.021-3.974 2.867-6.778 4.694-6.56 1.263.11 2.32.625 2.891 2.107.526 1.381.053 3.218-1.697 3.65-1.874.462-2.967.847-3.76 1.39-.969.666-1.705 1.937-1.728 3.414"/><path d="M13.783 19.032c-.006-1.28.708-2.413 1.64-3.022.832-.538 1.946-.891 3.74-1.347.556-.142 1.136-.457 1.312-.859.478.48.564 1.556.48 2.185-.099.729-.948 1.929-2.227 1.976-.782.031-1.777-.169-2.25-.27-.814-.176-2.113.336-2.32 1.336m.296 4.137-.279-2.03.672-.1c.163-.023.362.005.442.108a.57.57 0 0 1 .131.335c.026.173-.025.374-.22.474v.006c.218 0 .35.157.388.421.006.056.022.19.006.303-.044.268-.204.354-.474.392zm.431-.364c.08-.011.16-.015.224-.055.096-.064.088-.198.074-.299-.034-.22-.09-.303-.324-.269l-.147.023.093.612zm-.14-.937c.089-.015.21-.025.26-.11.026-.056.06-.1.037-.226-.027-.148-.076-.24-.265-.204l-.176.028.07.52m2.689.072q.01.059.014.118c.054.37-.014.676-.43.76-.614.119-.732-.263-.84-.798l-.058-.29c-.085-.51-.121-.898.479-1.018.337-.061.56.073.654.41.014.05.032.1.039.15l-.368.076c-.042-.127-.099-.352-.264-.333-.297.035-.199.405-.168.56l.11.555c.033.168.1.436.356.384.209-.042.118-.367.1-.5m.966.54-.127-2.1.495-.15 1.035 1.826-.389.116-.245-.464-.432.13.056.528zm.3-.98.313-.091-.415-.85m-12.401.334c.154-.495.293-.86.883-.697.316.088.511.227.502.594-.001.081-.028.165-.046.245l-.367-.101c.048-.203.078-.363-.171-.44-.289-.08-.359.27-.399.421l-.15.55c-.047.164-.104.434.15.504.21.056.337-.15.413-.45l-.257-.068.09-.319.603.195-.287 1.06-.278-.075.063-.224h-.008a.39.39 0 0 1-.42.176c-.605-.163-.542-.558-.398-1.086m2.326.611-.182.863-.41-.088.437-2.016.698.158c.408.088.532.27.474.645-.033.215-.14.447-.398.428l-.003-.004c.22.077.238.187.2.378-.017.081-.13.574-.052.653l.002.06-.423-.11c-.018-.137.042-.382.066-.518.024-.12.062-.29-.06-.353-.096-.051-.131-.049-.24-.074zm.07-.312.275.074c.168.024.26-.062.294-.265.03-.185-.009-.258-.16-.294l-.295-.06m2.443.067.405.047-.175 1.416c-.085.45-.258.646-.752.584-.503-.063-.622-.292-.592-.745l.176-1.415.408.047-.175 1.383c-.019.15-.054.373.214.4.237.018.29-.139.317-.334m1.025.742.122-2.026.778.034c.368.018.464.318.453.605-.01.174-.065.369-.217.474a.68.68 0 0 1-.433.104l-.254-.014-.05.849zm.46-1.132.207.012c.167.006.278-.06.293-.306.008-.237-.082-.277-.298-.286l-.164-.006m54.39-17.252L63.269 9.85c-1.168-.948-2.593-1.646-4.412-1.646-4.304 0-6.053 3.209-6.053 5.469 0 1.678 1.099 4.153 4.929 4.153 1.607 0 3.893-1.119 4.55-1.627l-3.059 6.513c-1.458.29-1.937.471-3.171.51-6.855.204-9.625-4.007-9.623-8.31.005-5.688 5.062-12.606 13.446-12.606.514 0 1.142.177 1.68.374l.542-.694m17.026.174L80 22.566h-6.518l-.004-3.5h-4.445l-1.463 3.5h-7.069l7.39-14.57-1.666-.011 3.167-5.823zm-5.688 6.243-2.513 5.935h2.588"/><path d="M42.315 2.16c3.228.019 5.052 1.771 5.052 4.302 0 2.334-1.924 4.4-4.036 5.467 2.174.8 2.363 2.761 2.363 4.15 0 3.353-3.365 6.486-7.74 6.486h-9.538l3.72-14.367-1.528-.01 3.125-6.027s5.957-.018 8.582 0m-3.167 8.274c.668 0 1.847-.17 2.141-1.462.323-1.402-.783-1.44-1.314-1.44l-1.896-.008-.662 2.91zm-2.681 3.605-.873 3.354h2.233c.878 0 2.075-.436 2.369-1.528.29-1.094-.547-1.826-1.423-1.826"/></g><defs><clipPath id="clip0_3802_10653"><path fill="#fff" d="M0 0h80v25.072H0z"/></clipPath></defs></svg>
