<svg fill="none" viewBox="0 0 80 24" xmlns="http://www.w3.org/2000/svg"><g fill-rule="evenodd" clip-path="url(#clip0_3802_11102)" clip-rule="evenodd"><path fill="#F15A23" d="m0 8.135 6.749 8.514L0 22.24zm2.716 14.106 5.079-4.248 3.51 4.248zM0 3.58l1.761 2.228 7.242 9.048 2.346-1.868s-1.948-2.294-3.256-4.853C5.536 3.132 7.346.016 7.346.016H0zm10.035 12.673 2.39-1.974s2.282 3.005 4.929 3.714c3.468.93 5.003-1.344 5.003-1.344v5.592H14.74l1.717-1.485s-.896.598-3.088-.92c-1.293-.896-3.334-3.583-3.334-3.583M10.255 0s-.763 1.039-.22 3.58c.58 2.716 2.887 5.59 2.882 5.526 0 0 .148-2.854 1.823-4.53 3.57-3.57 7.617-1.444 7.617-1.444V.016z"/><path fill="#F15A23" d="M22.357 6.896S20.1 4.96 18.137 4.96c-2.512 0-3.883 2.168-3.883 3.741 0 2.29 1.1 3.564 2.204 4.667 1.585 1.586 3.515 3.297 5.9 1.92z"/><path fill="#005E6A" d="M48.072.233H53.4s4.72 7.147 7.04 10.1a341 341 0 0 1 4.816 6.316V1.834c0-.64-1.68-1.601-1.68-1.601h6.145s-2.017.828-2.017 1.6v21.553s-1.934-1.072-4.128-3.621C61.111 16.9 52.344 5.338 52.344 5.338v14.976c0 .767 1.68 1.927 1.68 1.927h-5.952s1.632-1.17 1.632-1.927V1.834c0-.68-1.632-1.601-1.632-1.601m25.09 0H80s-1.836.87-1.836 1.6v18.481c0 .799 1.836 1.927 1.836 1.927h-6.838s1.71-1.154 1.71-1.927V1.834c0-.703-1.71-1.601-1.71-1.601m-45.209 0s1.773.884 1.773 1.6v18.481c0 .786-1.773 1.927-1.773 1.927h10.13c.634 0 7.725-1.16 7.725-6.627S40.3 9.635 40.3 9.635s3.356-.933 3.356-4.674c0-4.032-4.94-4.728-5.572-4.728zm5.382 9.04v-6.88h4.115c.633 0 2.85.739 2.85 3.481 0 2.261-2.216 3.399-2.85 3.399zm0 1.804h4.749c.633 0 4.368.97 4.368 4.212 0 3.304-3.735 4.476-4.368 4.476h-4.75z"/></g><defs><clipPath id="clip0_3802_11102"><path fill="#fff" d="M0 0h80v23.386H0z"/></clipPath></defs></svg>
