<svg fill="none" viewBox="0 0 80 41" xmlns="http://www.w3.org/2000/svg"><g clip-path="url(#clip0_3802_8213)"><path fill="#0857C3" d="M74.954 34.984v4.13h.666v-4.13zm-42.015 0 1.58 4.153-.12.343a1.2 1.2 0 0 1-.23.437.5.5 0 0 1-.301.165.9.9 0 0 1-.372-.029l-.068-.018-.171.577a.8.8 0 0 0 .181.052q.13.026.308.026.291 0 .524-.1a1.1 1.1 0 0 0 .408-.314q.178-.214.3-.543l1.817-4.75h-.724l-.89 2.45q-.13.376-.233.761l-.082.307-.08-.307a9 9 0 0 0-.238-.761l-.879-2.45zm39.49-.051q-.438 0-.786.152-.346.152-.545.427-.2.27-.2.625.001.436.274.716.272.277.836.41l.685.164q.307.07.457.212.151.143.151.357.002.257-.26.438-.254.186-.685.185c-.245 0-.456-.053-.617-.159a.8.8 0 0 1-.334-.499l-.63.155q.071.354.286.596.216.243.544.37.333.122.755.121.488 0 .854-.161.368-.163.572-.446.206-.28.204-.645a1 1 0 0 0-.266-.706q-.274-.277-.833-.409l-.625-.148q-.36-.087-.528-.223a.46.46 0 0 1-.168-.37q0-.258.246-.428.248-.17.617-.17.398.002.596.182.199.18.283.403l.602-.157a1.5 1.5 0 0 0-.279-.514 1.26 1.26 0 0 0-.484-.35 1.8 1.8 0 0 0-.722-.128m-4.225 0q-.562 0-.979.272-.42.273-.65.757a2.6 2.6 0 0 0-.23 1.12q.001.637.235 1.112c.157.32.381.565.668.745q.434.265 1.034.264.426 0 .761-.132c.229-.09.415-.21.57-.37.15-.153.26-.34.323-.546l-.641-.178q-.08.21-.221.356a1 1 0 0 1-.347.21 1.3 1.3 0 0 1-.441.072 1.3 1.3 0 0 1-.662-.167q-.289-.164-.446-.483a1.7 1.7 0 0 1-.157-.689h2.983v-.278q0-.574-.154-.97a1.7 1.7 0 0 0-.417-.635 1.6 1.6 0 0 0-.58-.351 2 2 0 0 0-.65-.11m0 .592q.373-.002.627.179.25.178.377.493.094.234.117.515h-2.303q.016-.282.137-.528a1.2 1.2 0 0 1 .407-.478q.264-.182.638-.181m-4.226-.592q-.466 0-.817.241-.272.184-.445.573l-.005-.763h-.64v4.132h.667V36.64c0-.237.046-.435.136-.603a.94.94 0 0 1 .374-.375q.236-.131.532-.132.433 0 .683.272.249.271.25.745v2.57h.664V36.49q-.001-.522-.176-.868a1.2 1.2 0 0 0-.489-.518 1.5 1.5 0 0 0-.734-.171m-4.76 0q-.563-.002-.988.265-.42.266-.657.75-.239.482-.238 1.126 0 .638.237 1.118.239.478.658.747.425.265.989.264.56 0 .99-.264.425-.269.66-.747.236-.48.237-1.118 0-.645-.237-1.126a1.77 1.77 0 0 0-.66-.75 1.83 1.83 0 0 0-.99-.265m0 .594q.416 0 .686.216.268.214.4.568c.087.239.128.49.128.763q.001.408-.128.755-.132.352-.4.565-.27.215-.685.215-.417-.001-.683-.215a1.3 1.3 0 0 1-.396-.565 2.2 2.2 0 0 1-.128-.755q0-.412.128-.763a1.3 1.3 0 0 1 .396-.568q.266-.216.683-.216m-8.881-.594q-.47 0-.822.241-.27.184-.443.572l-.002-.762h-.641v4.133h.664v-2.478q.001-.354.137-.603a.93.93 0 0 1 .372-.375q.238-.131.534-.132.43 0 .681.272.251.271.252.745v2.57h.664V36.49q0-.522-.177-.868a1.16 1.16 0 0 0-.487-.518 1.5 1.5 0 0 0-.732-.171m-39.1 0q-.467 0-.818.241-.271.184-.445.577l-.003-.767h-.64v4.132h.667V36.64c0-.237.043-.435.136-.603a.94.94 0 0 1 .373-.375q.237-.131.532-.132.434 0 .683.272.249.271.25.745v2.57h.662V36.49q0-.522-.173-.868a1.17 1.17 0 0 0-.49-.518 1.5 1.5 0 0 0-.733-.171m67.084-.002c-.215 0-.427.03-.644.088a1.8 1.8 0 0 0-.594.302 1.44 1.44 0 0 0-.431.592l.64.208q.067-.143.198-.283a1 1 0 0 1 .342-.229q.21-.094.507-.092.285-.001.48.094a.66.66 0 0 1 .29.279.9.9 0 0 1 .095.435v.023c0 .101-.041.171-.113.215a.9.9 0 0 1-.347.086l-.603.074c-.19.027-.384.058-.57.101a1.9 1.9 0 0 0-.521.192.96.96 0 0 0-.373.349c-.095.149-.143.338-.143.576q-.001.406.19.69c.124.19.3.339.505.432q.322.149.714.148.35 0 .6-.103a1.3 1.3 0 0 0 .4-.255q.155-.155.226-.3h.045v.563h.654v-2.723q.002-.485-.16-.776a1.13 1.13 0 0 0-.407-.435 1.5 1.5 0 0 0-.51-.198 2.5 2.5 0 0 0-.47-.053m.883 2.12v.574a.96.96 0 0 1-.132.478 1 1 0 0 1-.39.376 1.23 1.23 0 0 1-.625.147 1.2 1.2 0 0 1-.437-.075.7.7 0 0 1-.306-.218.6.6 0 0 1-.11-.361q-.001-.233.126-.374a.8.8 0 0 1 .333-.208 2.3 2.3 0 0 1 .45-.103q.096-.01.257-.033a6 6 0 0 0 .343-.05 3 3 0 0 0 .313-.068q.135-.038.178-.085m-40.13-2.12c-.212 0-.424.03-.645.088a1.8 1.8 0 0 0-.594.302q-.27.212-.427.592l.639.208a1.1 1.1 0 0 1 .198-.283q.13-.14.34-.229a1.2 1.2 0 0 1 .508-.092q.287-.001.481.094a.64.64 0 0 1 .287.279.9.9 0 0 1 .099.435v.023q0 .15-.114.215a1 1 0 0 1-.347.086c-.152.02-.356.043-.602.074a7 7 0 0 0-.573.101q-.284.063-.518.192a.97.97 0 0 0-.373.349 1.05 1.05 0 0 0-.145.576q0 .406.192.69c.124.19.3.34.505.432q.322.149.712.148.353 0 .598-.103c.167-.068.3-.156.405-.255q.154-.155.225-.3h.045v.563h.654v-2.723q-.002-.485-.16-.776a1.13 1.13 0 0 0-.407-.435 1.4 1.4 0 0 0-.51-.198 2.5 2.5 0 0 0-.472-.053m.886 2.12v.574a.96.96 0 0 1-.133.478q-.135.232-.391.376-.255.148-.623.147-.25 0-.438-.075a.7.7 0 0 1-.305-.218.6.6 0 0 1-.11-.361q0-.233.124-.374a.8.8 0 0 1 .335-.208q.208-.073.45-.103l.262-.033q.161-.019.336-.05.158-.023.313-.068a.4.4 0 0 0 .18-.085m-13.505-2.12q-.318 0-.642.088c-.216.063-.42.165-.598.302q-.27.212-.427.592l.64.208a1.04 1.04 0 0 1 .538-.512q.21-.094.507-.092.288-.001.481.094a.65.65 0 0 1 .287.279.9.9 0 0 1 .095.435v.023q0 .15-.112.215a.9.9 0 0 1-.344.086l-.602.074a7 7 0 0 0-.574.101q-.286.063-.52.192a1 1 0 0 0-.376.349c-.093.149-.14.338-.14.576q.001.406.188.69c.126.19.303.338.51.432q.32.149.711.148.352 0 .599-.103c.165-.068.299-.156.404-.255q.154-.155.225-.3h.045v.563h.652v-2.723q0-.485-.16-.776a1.13 1.13 0 0 0-.407-.435 1.5 1.5 0 0 0-.512-.198 2.4 2.4 0 0 0-.468-.053m.88 2.12v.574a.99.99 0 0 1-.52.854 1.2 1.2 0 0 1-.622.147q-.249 0-.442-.075a.7.7 0 0 1-.303-.218.57.57 0 0 1-.112-.361q0-.233.129-.374a.8.8 0 0 1 .332-.208 2.3 2.3 0 0 1 .45-.103q.098-.01.26-.033.165-.02.34-.05.158-.023.311-.068.139-.038.178-.085M6.62 34.931q-.318 0-.643.088a1.8 1.8 0 0 0-.595.302q-.27.212-.427.592l.638.208q.075-.156.196-.283.135-.138.342-.229.211-.094.506-.092.288-.001.48.094c.124.06.227.157.292.279a.9.9 0 0 1 .094.435v.023q0 .15-.111.215a.9.9 0 0 1-.347.086l-.604.074a7 7 0 0 0-.574.101c-.185.042-.36.106-.515.192a1 1 0 0 0-.376.349c-.093.149-.14.338-.14.576q-.002.406.187.69c.126.19.302.339.508.432q.32.149.712.148.35 0 .6-.103c.163-.068.297-.156.4-.255q.159-.155.227-.3h.044v.563h.653v-2.723q-.001-.485-.16-.776a1.1 1.1 0 0 0-.407-.435 1.4 1.4 0 0 0-.51-.198 2.4 2.4 0 0 0-.47-.053m.883 2.12v.574a.96.96 0 0 1-.132.478q-.134.232-.387.376a1.23 1.23 0 0 1-.628.147q-.246 0-.437-.075a.67.67 0 0 1-.303-.218.57.57 0 0 1-.112-.361q0-.233.126-.374a.76.76 0 0 1 .334-.208 2.3 2.3 0 0 1 .448-.103q.095-.01.262-.033a6 6 0 0 0 .34-.05q.173-.027.312-.068.136-.038.177-.085M41.903 34v.984h-.621v.57h.621v2.54q0 .509.297.79.303.283.838.282.127 0 .258-.018.12-.014.235-.054l-.136-.562-.177.03q-.081.014-.162.016-.264 0-.377-.13-.111-.127-.111-.404v-2.49h.85v-.57h-.85V34zm13.8-.39v2.036h-.053a3 3 0 0 0-.192-.28 1.2 1.2 0 0 0-.367-.301q-.236-.131-.638-.132-.514-.002-.91.26a1.7 1.7 0 0 0-.619.736q-.224.48-.223 1.133 0 .654.221 1.139c.149.317.355.567.62.74a1.6 1.6 0 0 0 .907.262q.395.001.633-.134.239-.133.37-.307.133-.171.198-.285h.074v.64h.644V33.61zm-1.153 1.917q.379 0 .638.194.26.19.392.532.128.341.127.8c0 .308-.04.576-.132.811a1.2 1.2 0 0 1-.39.547 1.02 1.02 0 0 1-.635.198 1 1 0 0 1-.648-.209 1.25 1.25 0 0 1-.394-.563 2.3 2.3 0 0 1-.132-.784q.001-.428.13-.773.13-.349.39-.55.262-.203.654-.203m-8.073-1.917v5.506h.701V33.61zm-17.305 0v5.506h.664V37.59l.435-.408 1.513 1.934h.852l-1.857-2.356 1.727-1.776h-.823l-1.766 1.822h-.08V33.61zm-9.005 0v5.506h.7V36.98h1.19q.064 0 .127-.003l1.145 2.14h.815l-1.235-2.263q.108-.038.203-.087.415-.21.618-.59.2-.375.2-.868 0-.492-.2-.875a1.43 1.43 0 0 0-.62-.604c-.276-.149-.627-.219-1.058-.219zm.7.615h1.148q.439 0 .708.134c.173.09.305.217.386.378q.123.243.123.571 0 .325-.123.557a.8.8 0 0 1-.386.36q-.262.13-.7.131h-1.155zm-7.063-.615v5.506h.666V37.59l.435-.408 1.51 1.934h.855l-1.857-2.356 1.727-1.776h-.823l-1.768 1.822h-.079V33.61zm-13.594 0v5.506h2.016q.65 0 1.056-.195.405-.19.597-.527c.13-.22.19-.47.19-.746q0-.43-.172-.733a1.3 1.3 0 0 0-.427-.462 1.1 1.1 0 0 0-.515-.175v-.052q.237-.066.443-.202.207-.14.33-.37.127-.23.126-.588 0-.4-.182-.73a1.3 1.3 0 0 0-.557-.528c-.252-.132-.567-.198-.953-.198zm.702.621H2.15q.532-.002.784.248a.82.82 0 0 1 .247.604q.001.285-.14.5a.95.95 0 0 1-.38.327 1.2 1.2 0 0 1-.536.116H.912zm0 2.387h1.333q.352 0 .612.14.251.143.396.372a.97.97 0 0 1 .139.511.79.79 0 0 1-.27.607c-.18.163-.488.247-.915.247H.912zm74.378-3.19a.46.46 0 0 0-.326.126.4.4 0 0 0-.136.314q-.002.18.136.31.135.13.326.13a.45.45 0 0 0 .326-.13.4.4 0 0 0 .138-.31.41.41 0 0 0-.138-.314.46.46 0 0 0-.326-.126m.937-30.787a.37.37 0 0 0-.371.372v23.838a.37.37 0 0 0 .37.374h3.405a.26.26 0 0 0 .12-.027.36.36 0 0 0 .249-.347V3.013a.37.37 0 0 0-.37-.372zm-20.416 0a.373.373 0 0 0-.372.372v23.838c0 .207.167.374.372.374h3.309a.373.373 0 0 0 .373-.374V18.19a.367.367 0 0 1 .37-.37h2.675a.37.37 0 0 1 .3.155l6.39 9.092a.38.38 0 0 0 .304.159h3.809a.37.37 0 0 0 .3-.586l-6.015-8.562a.373.373 0 0 1 .212-.573c.966-.254 1.822-.632 2.542-1.123a7.5 7.5 0 0 0 1.81-1.724 6.8 6.8 0 0 0 1.064-2.16c.23-.796.347-1.62.348-2.447a8.2 8.2 0 0 0-.536-2.996 6.26 6.26 0 0 0-1.586-2.32c-.708-.65-1.61-1.168-2.676-1.536-1.081-.369-2.348-.557-3.77-.557zm4.051 3.6h5.21c.305 0 .6.019.903.056.935.143 1.704.48 2.292 1.011.811.732 1.224 1.643 1.224 2.707a4.7 4.7 0 0 1-.256 1.527 3.56 3.56 0 0 1-.821 1.343c-.371.383-.852.697-1.424.932-.571.235-1.26.355-2.05.355h-5.078a.37.37 0 0 1-.369-.374V6.611a.367.367 0 0 1 .37-.37m-23.395-3.6a.37.37 0 0 0-.371.372v23.838c0 .207.167.374.37.374h9.39c1.42 0 2.672-.196 3.726-.576 1.042-.38 1.917-.905 2.597-1.564a6.2 6.2 0 0 0 1.523-2.308c.332-.879.501-1.84.501-2.851 0-1.35-.311-2.565-.926-3.613-.621-1.056-1.35-1.879-2.172-2.45a.372.372 0 0 1-.05-.568c.16-.16.357-.373.578-.631a5.2 5.2 0 0 0 .61-.883 6 6 0 0 0 .494-1.141 4.3 4.3 0 0 0 .197-1.314c0-.937-.16-1.822-.478-2.633a5.6 5.6 0 0 0-1.46-2.104c-.661-.603-1.498-1.083-2.495-1.426-1.005-.344-2.2-.522-3.55-.522zm3.961 3.6h4.38c.852 0 1.578.108 2.16.322h.001c.39.15.72.349.972.592.65.623.98 1.379.98 2.25 0 .753-.134 1.392-.402 1.901-.256.487-.522.869-.786 1.135l-.11.11h-7.195a.37.37 0 0 1-.372-.374l.001-5.566a.37.37 0 0 1 .371-.37m0 9.949h5.678c1.38 0 2.422.371 3.109 1.108a3.74 3.74 0 0 1 .97 2.554c0 1.01-.374 1.887-1.102 2.605-.733.716-1.917 1.081-3.524 1.081h-5.13a.37.37 0 0 1-.372-.371V16.56a.37.37 0 0 1 .371-.371M4.408 0A4.407 4.407 0 0 0 0 4.41v21.15a4.41 4.41 0 0 0 4.409 4.412h21.15a4.41 4.41 0 0 0 4.413-4.413V4.411A4.41 4.41 0 0 0 25.56 0zm0 3.438h2.868v.015a3.48 3.48 0 0 1 2.406.868c.053.048.107.101.157.15 1.35 1.348 1.33 3.384-.037 4.964l-4.516 4.962a.87.87 0 0 0 0 1.172l4.485 4.927.043.051c1.38 1.504 1.393 3.584.025 4.947a3.45 3.45 0 0 1-2.562 1.021v.016H4.408a.97.97 0 0 1-.972-.972V4.409a.97.97 0 0 1 .972-.971m8.95 0h3.17v.016a3.5 3.5 0 0 1 2.407.868c.054.048.107.101.157.15 1.349 1.348 1.33 3.384-.037 4.965l-4.465 5.01a.876.876 0 0 0 .012 1.177L24.801 26.53H13.358c1.537-2.597 1.19-5.937-1.041-8.345l-2.914-3.2 2.88-3.17.062-.063c2.197-2.484 2.53-5.754 1.013-8.314m9.251.001h2.95a.97.97 0 0 1 .972.972v18.881l-7.825-8.363 2.828-3.111.06-.065C23.791 9.27 24.128 6 22.61 3.44"/></g><defs><clipPath id="clip0_3802_8213"><path fill="#fff" d="M0 0h80v40.691H0z"/></clipPath></defs></svg>
