<svg fill="none" viewBox="0 0 80 25" xmlns="http://www.w3.org/2000/svg"><g fill-rule="evenodd" clip-path="url(#clip0_3802_8197)" clip-rule="evenodd"><path fill="url(#paint0_linear_3802_8197)" d="M58.899.896c-1.54.921-5.172 3.073-6.529 3.875-.826.435-2.74.624-3.822-.883-.02-.028-1.44-1.86-1.498-1.93-.041-.049-.96-1.456-3.005-1.5-.303-.007-1.806-.015-3.273.846L34.29 5.13q0 .002-.004.003l-3.316 1.96 1.715 2.176c.803 1.03 2.613 1.826 4.182.895 0 0 5.8-3.469 5.821-3.479 2.508-1.42 4.444-1.42 5.728-.892 1.153.503 2.156 1.757 2.156 1.757s1.31 1.678 1.542 1.972c.746.948 1.98.576 1.98.576s.458-.054 1.148-.477l5.62-3.365c1.784-1.081 3.42-1.283 4.256-1.204 2.62.246 3.433 2.136 4.568 3.454.669.776 1.272 1.216 2.195 1.194.606-.013 1.291-.393 1.392-.462L80 5.228s-.69-1.073-2.104-2.744c-1.265-1.49-2.609-.816-3.68-.268-.45.23-2.08 1.35-3.697 2.132-1.15.557-2.805.39-3.71-.767-.055-.07-1.521-1.904-1.675-2.13C64.542.686 63.387 0 61.907 0c-.9 0-1.92.253-3.008.896"/><path fill="#003A70" d="M.084 16.573A45 45 0 0 0 0 13.475h2.194l.103 1.54h.062c.497-.814 1.406-1.776 3.103-1.776 1.324 0 2.358.771 2.792 1.925h.043c.352-.577.764-1.004 1.24-1.304.559-.406 1.2-.62 2.028-.62 1.675 0 3.37 1.174 3.37 4.508v6.132h-2.482v-5.746c0-1.731-.578-2.758-1.798-2.758-.87 0-1.512.642-1.78 1.39a3.8 3.8 0 0 0-.124.874v6.24H6.268v-6.025c0-1.452-.558-2.479-1.737-2.479-.952 0-1.592.77-1.82 1.495a2.3 2.3 0 0 0-.146.855v6.154H.085zm24.521 4.807c0 .94.041 1.858.145 2.5h-2.297l-.165-1.153h-.062c-.62.813-1.676 1.389-2.979 1.389-2.027 0-3.165-1.516-3.165-3.098 0-2.63 2.254-3.953 5.978-3.931v-.172c0-.684-.27-1.816-2.048-1.816-.993 0-2.028.321-2.71.769l-.497-1.708c.746-.47 2.05-.92 3.642-.92 3.228 0 4.158 2.116 4.158 4.38zm-2.483-2.584c-1.8-.043-3.516.363-3.516 1.944 0 1.025.641 1.496 1.448 1.496a2.07 2.07 0 0 0 1.985-1.432c.062-.192.083-.407.083-.577zm4.242-2.223a47 47 0 0 0-.083-3.098h2.232l.125 1.56h.061c.435-.81 1.531-1.796 3.207-1.796 1.758 0 3.579 1.175 3.579 4.467v6.174H32.94v-5.875c0-1.496-.538-2.629-1.924-2.629-1.014 0-1.717.748-1.986 1.539-.082.236-.103.557-.103.854v6.111h-2.564zm20.152-7.278v11.657c0 1.068.04 2.224.082 2.929h-2.276l-.102-1.645h-.042c-.6 1.154-1.822 1.88-3.29 1.88-2.398 0-4.301-2.115-4.301-5.32-.022-3.483 2.088-5.556 4.508-5.556 1.386 0 2.38.599 2.834 1.369h.042V9.295zM43.97 17.81c0-.211-.021-.469-.061-.682-.228-1.025-1.035-1.859-2.194-1.859-1.634 0-2.544 1.496-2.544 3.44 0 1.902.91 3.29 2.524 3.29 1.033 0 1.944-.725 2.192-1.857a3 3 0 0 0 .083-.771zm4.343 6.07h2.568V13.476h-2.568zm4.366-7.05c0-1.41-.022-2.416-.083-3.355h2.214l.08 1.986h.086c.496-1.474 1.675-1.986 2.75-1.986.248 0 .393-.044.6 0v2.308a3.4 3.4 0 0 0-.745-.085c-1.22 0-2.048.811-2.275 1.985-.04.236-.082.515-.082.815v5.383h-2.545zm6.826 7.05h2.564V13.476h-2.564z"/></g><defs><linearGradient id="paint0_linear_3802_8197" x1="0" x2="80" y1="24.116" y2="24.116" gradientUnits="userSpaceOnUse"><stop stop-color="#FFCA06"/><stop offset=".331" stop-color="#FBAA18"/><stop offset=".695" stop-color="#FFC907"/><stop offset="1" stop-color="#FAA619"/></linearGradient><clipPath id="clip0_3802_8197"><path fill="#fff" d="M0 0h80v24.116H0z"/></clipPath></defs></svg>
